{
  "accessors": [
    {
      "bufferView": 0,
      "componentType": 5126,
      "count": 72994,
      "max": [
        0.209128007292747,
        0.176255002617836,
        0.0886920019984245
      ],
      "min": [
        -0.209075003862381,
        -0.176070004701614,
        -0.0883060023188591
      ],
      "type": "VEC3"
    },
    {
      "bufferView": 1,
      "componentType": 5126,
      "count": 72994,
      "type": "VEC3"
    },
    {
      "bufferView": 2,
      "componentType": 5126,
      "count": 72994,
      "type": "VEC2"
    },
    {
      "bufferView": 3,
      "componentType": 5125,
      "count": 300000,
      "type": "SCALAR"
    }
  ],
  "asset": {
    "generator": "MeshSmith mesh conversion tool",
    "version": "2.0"
  },
  "bufferViews": [
    {
      "buffer": 0,
      "byteLength": 875928,
      "target": 34962
    },
    {
      "buffer": 0,
      "byteLength": 875928,
      "byteOffset": 875928,
      "target": 34962
    },
    {
      "buffer": 0,
      "byteLength": 583952,
      "byteOffset": 1751856,
      "target": 34962
    },
    {
      "buffer": 0,
      "byteLength": 1200000,
      "byteOffset": 2335808,
      "target": 34963
    }
  ],
  "buffers": [
    {
      "byteLength": 3535808,
      "uri": "usnm_56807-100k-2048.bin"
    }
  ],
  "images": [
    {
      "uri": "usnm_56807-100k-2048-diffuse.jpg"
    },
    {
      "uri": "usnm_56807-100k-2048-occlusion.jpg"
    },
    {
      "uri": "usnm_56807-100k-2048-normals.jpg"
    }
  ],
  "materials": [
    {
      "name": "default",
      "normalTexture": {
        "index": 2
      },
      "occlusionTexture": {
        "index": 1
      },
      "pbrMetallicRoughness": {
        "baseColorTexture": {
          "index": 0
        },
        "metallicFactor": 0.100000001490116,
        "roughnessFactor": 0.800000011920929
      }
    }
  ],
  "meshes": [
    {
      "primitives": [
        {
          "attributes": {
            "NORMAL": 1,
            "POSITION": 0,
            "TEXCOORD_0": 2
          },
          "indices": 3,
          "material": 0,
          "mode": 4
        }
      ]
    }
  ],
  "nodes": [
    {
      "mesh": 0
    }
  ],
  "scene": 0,
  "scenes": [
    {
      "nodes": [
        0
      ]
    }
  ],
  "textures": [
    {
      "source": 0
    },
    {
      "source": 1
    },
    {
      "source": 2
    }
  ]
}